# Exported from Wings 3D 2.0
mtllib pantalla_grande_map.mtl
o object1
#112 vertices, 220 faces
v -15.00526029 0.50000000 -1.31625020
v -14.50526029 0.0000000e+0 -1.31625020
v 14.37609102 0.0000000e+0 -1.31625020
v 14.87609102 0.50000000 -1.31625020
v 14.87609102 19.55396665 -1.31625020
v 14.37609102 20.05396665 -1.31625020
v -14.50526029 20.05396665 -1.31625020
v -15.00526029 19.55396665 -1.31625020
v -14.93827254 19.80396742 -1.31625020
v -14.75526106 19.98697890 -1.31625020
v 14.62609180 19.98697890 -1.31625020
v 14.80910328 19.80396742 -1.31625020
v 14.80910328 0.24999922 -1.31625020
v 14.62609180 6.6987750e-2 -1.31625020
v -14.75526106 6.6987750e-2 -1.31625020
v -14.93827254 0.24999922 -1.31625020
v 13.51250779 18.73983011 -0.65461347
v -12.11093360 18.73983011 -0.65461347
v -13.84098348 16.68247350 -0.65461347
v -13.84098348 1.34581515 -0.65461347
v 13.51250779 1.34581515 -0.65461347
v 13.51250779 18.73983011 -0.50000000
v -12.11093360 18.73983011 -0.50000000
v -13.84098348 16.68247350 -0.50000000
v -13.84098348 1.34581515 -0.50000000
v 13.51250779 1.34581515 -0.50000000
v -0.16423784 19.23983011 0.0000000e+0
v 13.51250779 19.23983011 0.0000000e+0
v 14.01250779 18.73983011 0.0000000e+0
v 14.01250779 1.34581515 0.0000000e+0
v 13.51250779 0.84581515 0.0000000e+0
v -0.16423784 0.84581515 0.0000000e+0
v -0.16423784 0.50000000 0.0000000e+0
v 14.37609102 0.50000000 0.0000000e+0
v 14.37609102 19.55396665 0.0000000e+0
v -0.16423784 19.55396665 0.0000000e+0
v -13.84098348 0.84581515 0.0000000e+0
v -14.34098348 1.34581515 0.0000000e+0
v -14.34098348 16.68247350 0.0000000e+0
v -14.22366452 17.00427347 0.0000000e+0
v -12.49361465 19.06163008 0.0000000e+0
v -12.11093360 19.23983011 0.0000000e+0
v -14.50526029 19.55396665 0.0000000e+0
v -14.50526029 0.50000000 0.0000000e+0
v 13.76250867 19.17284231 0.0000000e+0
v 13.94552014 18.98983073 0.0000000e+0
v 13.94552014 1.09581453 0.0000000e+0
v 13.76250867 0.91280296 0.0000000e+0
v -14.09098410 0.91280281 0.0000000e+0
v -14.27399567 1.09581427 0.0000000e+0
v -14.31073901 16.85373278 0.0000000e+0
v -12.32200233 19.19309603 0.0000000e+0
v -12.13921138 18.80055609 -0.25000027
v -12.21646805 18.96646332 -6.6987140e-2
v -12.11093360 18.80681786 -0.24999922
v -12.16220348 18.78294342 -0.24999922
v -12.11093360 18.98982934 -6.6987750e-2
v -12.30227353 18.90072960 -6.6987750e-2
v 13.54600139 18.79784267 -0.25000027
v 13.57052036 18.77332369 -0.25000027
v 13.63750801 18.95633664 -6.6987140e-2
v 13.72901435 18.86483028 -6.6987140e-2
v 13.51250779 18.80681786 -0.24999922
v 13.57949554 18.73983011 -0.24999922
v 13.51250779 18.98982934 -6.6987750e-2
v 13.76250702 18.73983011 -6.6987750e-2
v -13.90391864 16.70541785 -0.25000027
v -14.07586149 16.76810324 -6.6987140e-2
v -13.89225336 16.72558681 -0.24999922
v -13.90797122 16.68247350 -0.24999922
v -14.03232341 16.84337299 -6.6987750e-2
v -14.09098270 16.68247350 -6.6987750e-2
v -13.89899603 1.31232155 -0.25000027
v -13.87447706 1.28780259 -0.25000027
v -14.05749001 1.22081493 -6.6987140e-2
v -13.96598364 1.12930859 -6.6987140e-2
v -13.90797122 1.34581515 -0.24999922
v -13.84098348 1.27882740 -0.24999922
v -14.09098270 1.34581515 -6.6987750e-2
v -13.84098348 1.09581593 -6.6987750e-2
v 13.54600139 1.28780259 -0.25000027
v 13.57052036 1.31232157 -0.25000027
v 13.63750801 1.12930862 -6.6987140e-2
v 13.72901435 1.22081498 -6.6987140e-2
v 13.51250779 1.27882740 -0.24999922
v 13.57949554 1.34581515 -0.24999922
v 13.51250779 1.09581593 -6.6987750e-2
v 13.76250702 1.34581515 -6.6987750e-2
v 14.87609102 0.50000000 -0.50000000
v 14.87609102 19.55396665 -0.50000000
v -14.50526029 20.05396665 -0.50000000
v 14.37609102 20.05396665 -0.50000000
v 14.62622047 19.98718798 -0.24987055
v -14.75538970 19.98718801 -0.24987059
v 14.62611594 19.80399157 -6.6951350e-2
v 14.72964016 19.90751579 -0.14646134
v -14.85880943 19.90751579 -0.14646134
v -14.75528521 19.80399157 -6.6951350e-2
v 14.80931238 0.24987058 -0.24987058
v 14.80931236 19.80409609 -0.24987055
v 14.62611594 0.24997508 -6.6951350e-2
v 14.72964016 0.14645086 -0.14646134
v -14.93848163 19.80409609 -0.24987055
v -15.00526029 19.55396665 -0.50000000
v -14.50526029 0.0000000e+0 -0.50000000
v 14.37609102 0.0000000e+0 -0.50000000
v -15.00526029 0.50000000 -0.50000000
v -14.75538973 6.6778660e-2 -0.24987055
v 14.62622040 6.6778620e-2 -0.24987062
v -14.75528521 0.24997508 -6.6951350e-2
v -14.85880943 0.14645086 -0.14646134
v -14.93848163 0.24987055 -0.24987055
vt 1.4505134e-2 4.1684337e-2
vt 1.4505134e-2 0.34596272
vt 1.4588889e-2 0.97590281
vt 1.5017369e-2 0.97577246
vt 1.5455556e-2 0.40052296
vt 1.5455818e-2 0.74208306
vt 1.5574881e-2 3.7692001e-2
vt 1.5574881e-2 0.34995506
vt 1.5602597e-2 0.97572472
vt 1.5602643e-2 0.98024171
vt 1.5602819e-2 0.98281499
vt 1.5603042e-2 0.97170580
vt 1.5744444e-2 0.89482655
vt 1.5750270e-2 0.91342239
vt 1.6847516e-2 0.39875771
vt 1.6847781e-2 0.74393074
vt 1.8497445e-2 3.4769437e-2
vt 1.8497445e-2 0.35287762
vt 1.8654512e-2 0.39732484
vt 1.8654780e-2 0.74528119
vt 1.8656233e-2 0.40059769
vt 1.8656495e-2 0.74215413
vt 2.0111881e-2 0.89926051
vt 2.0114611e-2 0.91349469
vt 2.2489781e-2 3.3699690e-2
vt 2.2489781e-2 0.35394737
vt 2.3024601e-2 0.40499164
vt 2.3024857e-2 0.73781355
vt 2.3977778e-2 0.83262985
vt 2.3981431e-2 0.85122663
vt 2.5369801e-2 0.83093674
vt 2.5894836e-2 0.41976577
vt 2.5895042e-2 0.68765623
vt 2.6423472e-2 0.69064767
vt 2.7065235e-2 0.41539892
vt 2.7176738e-2 0.83282509
vt 2.7178985e-2 0.85142178
vt 2.7944828e-2 0.69327721
vt 3.0262788e-2 0.41220220
vt 3.0262858e-2 0.41973907
vt 3.0263064e-2 0.68762953
vt 3.0527261e-2 0.68912526
vt 3.0848036e-2 0.41755565
vt 3.1287954e-2 0.69044002
vt 3.1546967e-2 0.85149321
vt 3.1546967e-2 0.83725838
vt 3.2446823e-2 0.41595728
vt 3.3460519e-2 0.41966614
vt 3.3460725e-2 0.68755660
vt 3.3531532e-2 0.68795738
vt 3.3617332e-2 0.41908109
vt 3.3735346e-2 0.68830967
vt 3.4045724e-2 0.41865281
vt 3.4630767e-2 0.41103210
vt 3.4630809e-2 0.41537225
vt 5.8172071e-2 0.72921374
vt 6.1170461e-2 0.73151010
vt 6.1515196e-2 0.72637654
vt 6.3014380e-2 0.72752474
vt 6.3962589e-2 0.72424620
vt 6.4364304e-2 0.72455385
vt 6.4858228e-2 0.73232642
vt 6.4858265e-2 0.72793288
vt 6.4858370e-2 0.72466322
vt 0.27358915 0.40499164
vt 0.27358915 0.41103210
vt 0.27358940 0.73232642
vt 0.27358940 0.73781355
vt 0.48370456 3.3699690e-2
vt 0.48370456 0.35394737
vt 0.48769689 3.4769437e-2
vt 0.48769689 0.35287762
vt 0.49061946 3.7692001e-2
vt 0.49061946 0.34995506
vt 0.49168920 4.1684337e-2
vt 0.49168920 0.34596272
vt 0.49351936 0.97572472
vt 0.49351940 0.98024171
vt 0.49351958 0.98281499
vt 0.49410452 0.97577246
vt 0.49548333 0.29792750
vt 0.49548333 0.30677957
vt 0.49548333 0.30719334
vt 0.49548333 0.31141249
vt 0.49548333 0.31604541
vt 0.49598341 0.32064480
vt 0.49607893 0.30214665
vt 0.49607893 0.30666867
vt 0.49607893 0.31604541
vt 0.49711056 0.31141249
vt 0.49711056 0.30214665
vt 0.49734967 0.31633407
vt 0.49757119 0.97329469
vt 0.49757119 0.97781671
vt 0.49770617 0.30677957
vt 0.49770617 0.31182626
vt 0.49770617 0.29751373
vt 0.50864989 2.0098367e-2
vt 0.50923506 2.7238317e-2
vt 0.50923506 2.0072717e-2
vt 0.50923514 2.4573261e-2
vt 0.50966100 0.36451707
vt 0.50966100 3.1608548e-2
vt 0.50973322 2.7240565e-2
vt 0.50973322 0.36888505
vt 0.51254754 0.41103210
vt 0.51254758 0.41537225
vt 0.51254769 0.41849604
vt 0.51254779 0.73232642
vt 0.51254782 0.72793288
vt 0.51254793 0.72466322
vt 0.51313289 0.41865281
vt 0.51313312 0.72450645
vt 0.51356128 0.41908109
vt 0.51356152 0.72407817
vt 0.51371809 0.41966614
vt 0.51371833 0.72349313
vt 0.51473157 0.41595728
vt 0.51473181 0.72734785
vt 0.51620284 0.97781771
vt 0.51633036 0.41755565
vt 0.51633060 0.72574948
vt 0.51691552 0.41220220
vt 0.51691554 0.41973907
vt 0.51691577 0.73115632
vt 0.51691577 0.72356606
vt 0.52011308 0.41539892
vt 0.52011332 0.72795960
vt 0.52128348 0.41976577
vt 0.52128372 0.72359275
vt 0.52389525 3.1608548e-2
vt 0.52389525 0.36451707
vt 0.52472081 0.89926051
vt 0.52472354 0.91349469
vt 0.52731804 0.29445003
vt 0.52732324 0.29485595
vt 0.52735151 0.29522677
vt 0.52763595 0.40499164
vt 0.52763621 0.73781355
vt 0.52832915 2.7238317e-2
vt 0.52832915 0.36888730
vt 0.52909379 0.89482655
vt 0.52909512 0.91342239
vt 0.53178412 2.7805123e-2
vt 0.53181838 0.33398746
vt 0.53181978 0.29456585
vt 0.53182017 2.7238317e-2
vt 0.53200439 0.40059769
vt 0.53200466 0.74215413
vt 0.53200632 0.39732484
vt 0.53200659 0.74528119
vt 0.53230255 0.91322486
vt 0.53381320 0.39875771
vt 0.53381347 0.74393074
vt 0.53448257 0.29456585
vt 0.53461366 0.95614581
vt 0.53461366 0.95614581
vt 0.53461366 0.95923444
vt 0.53461366 0.96210128
vt 0.53461368 0.95840683
vt 0.53461368 0.95462655
vt 0.53520529 0.40052297
vt 0.53520555 0.74208306
vt 0.53615832 0.85149321
vt 0.53615832 0.83725838
vt 0.53628586 2.7920944e-2
vt 0.53628665 0.33332653
vt 0.53894865 2.7920944e-2
vt 0.53894945 0.33332653
vt 0.53905933 0.96066786
vt 0.53905933 0.96066786
vt 0.53905935 0.95840683
vt 0.53905935 0.96292888
vt 0.53905935 0.95697341
vt 0.53910140 0.95558970
vt 0.54052630 0.85142178
vt 0.54052855 0.83282509
vt 0.54233549 0.83093674
vt 0.54372386 0.85122663
vt 0.54372751 0.83262985
vt 0.56477964 0.96012022
vt 0.56492668 0.97871605
vt 0.56914086 0.96001211
vt 0.56925514 0.97424627
vt 0.57164800 0.89206128
vt 0.57207581 0.89198775
vt 0.57266078 0.89195737
vt 0.57269692 0.89645785
vt 0.57271831 0.89912274
vt 0.57542265 0.69638633
vt 0.57745232 5.0322503e-2
vt 0.87655704 0.88951749
vt 0.87659317 0.89401796
vt 0.87661457 0.89668285
vt 0.87714242 0.88953846
vt 0.87757136 0.88960511
vt 0.90203347 0.95723518
vt 0.90214775 0.97146934
vt 0.90640780 0.95727042
vt 0.90655933 0.97586621
vt 0.90838845 0.97773968
vt 0.90977605 0.97603542
vt 0.93766014 0.69752433
vt 0.95692461 2.7238317e-2
vt 0.95692461 2.0072717e-2
vt 0.95692469 2.4573261e-2
vt 0.95741870 2.0090618e-2
vt 0.95782047 2.0140898e-2
vt 0.97125380 0.65060940
vt 0.97152597 0.66923715
vt 0.97348921 0.64876583
vt 0.97577733 0.65054355
vt 0.98638135 0.65681483
vt 0.98828265 5.1613169e-2
vn -0.69240990 -0.68753129 0.21879044
vn 0.41388192 -0.89344014 0.17454649
vn 0.93075765 -0.33932730 0.13618802
vn 0.68753132 0.69240988 0.21879041
vn -0.68382950 0.68382944 0.25446906
vn 0.0000000e+0 -0.15657771 0.98766564
vn -2.3273194e-2 -0.13038679 0.99119001
vn -0.15641675 -2.7919348e-2 0.98729647
vn -0.14904070 1.9944095e-2 0.98862991
vn -2.3273192e-2 0.13038679 0.99119001
vn 0.0000000e+0 0.15657770 0.98766564
vn 0.0000000e+0 -0.11179226 0.99373160
vn 6.5327366e-2 -3.2663683e-2 0.99732914
vn 3.2576009e-2 3.2576009e-2 0.99893824
vn 0.0000000e+0 0.11179226 0.99373160
vn 2.3273173e-2 0.13038679 0.99119001
vn 0.15641675 2.7919370e-2 0.98729646
vn 0.14910059 -1.3159269e-2 0.98873447
vn 0.13164037 -8.6629852e-2 0.98750498
vn 0.12063838 -0.12656416 0.98459529
vn 1.9243009e-2 -0.13043098 0.99127063
vn -2.8935361e-2 2.8935361e-2 0.99916239
vn -5.8018319e-2 -2.9009160e-2 0.99789395
vn -9.0304547e-2 -0.12847166 0.98759309
vn -0.11290327 -6.5184736e-2 0.99146548
vn -0.11290327 6.5184737e-2 0.99146548
vn -9.0304549e-2 0.12847166 0.98759309
vn 6.5184738e-2 0.11290327 0.99146548
vn 0.12847166 9.0304553e-2 0.98759309
vn 0.12256667 -4.4684262e-2 0.99145385
vn 5.5054760e-2 -0.11822901 0.99145896
vn 0.34506111 -0.74101188 0.57605054
vn 0.17723619 -0.38061126 0.90759154
vn 7.5525090e-2 -0.88891540 0.45180236
vn 0.59057875 -0.59529616 0.54482953
vn 5.4294877e-2 -0.53136627 0.84540047
vn 0.36691048 -0.40779280 0.83611108
vn -0.40855338 -0.70763574 0.57648573
vn -0.74398127 -0.38407546 0.54678873
vn -0.21308597 -0.39792166 0.89232994
vn -0.38845233 -0.25631000 0.88510450
vn -9.0812788e-2 -0.83385178 0.54446694
vn -0.86321223 -7.5761046e-2 0.49912414
vn -7.6430223e-2 -0.49727395 0.86422048
vn -0.49727395 -7.6430185e-2 0.86422048
vn 0.76820216 -0.28006425 0.57569910
vn 0.39483692 -0.14394611 0.90740472
vn 0.72002511 -0.52637257 0.45221208
vn 0.88985328 -6.0542481e-2 0.45221207
vn 0.43502579 -0.30906780 0.84571252
vn 0.57400479 -5.0512685e-2 0.81729246
vn 0.74398118 0.38407563 0.54678872
vn 0.40855328 0.70763582 0.57648571
vn 0.42120073 0.26671491 0.86686395
vn 0.20967245 0.36316352 0.90782692
vn 0.83385179 9.0812789e-2 0.54446693
vn 9.0820429e-2 0.88774558 0.45128642
vn 0.49727394 7.6430210e-2 0.86422049
vn 6.5458975e-2 0.53073396 0.84500686
vn -0.38407563 0.74398118 0.54678872
vn -0.70763584 0.40855321 0.57648573
vn -0.26671491 0.42120074 0.86686394
vn -0.36316351 0.20967246 0.90782692
vn -9.0812788e-2 0.83385179 0.54446692
vn -0.85992256 0.11370175 0.49759934
vn -7.6430212e-2 0.49727395 0.86422048
vn -0.57266068 7.6135011e-2 0.81624947
vn 0.99311788 -0.10481622 5.2253518e-2
vn 0.98892059 0.10509933 0.10483415
vn -0.13118487 0.98919842 6.5398945e-2
vn 8.7478814e-2 0.99233738 8.7258093e-2
vn 0.32004746 0.89163613 0.32024152
vn -0.31520010 0.91516727 0.25123250
vn 0.24705794 0.24705795 0.93697638
vn 0.57702152 0.57702155 0.57800718
vn -0.57702152 0.57702155 0.57800718
vn -0.27996579 0.27996580 0.91828008
vn 0.92668551 -0.24390080 0.28594820
vn 0.89776535 0.24754819 0.36433127
vn 0.28105152 -0.31397393 0.90687949
vn 0.57702151 -0.57702156 0.57800718
vn -0.92668550 0.24390080 0.28594821
vn -0.98919841 0.13118488 6.5398956e-2
vn -8.7478812e-2 -0.99233738 8.7258078e-2
vn 0.13118486 -0.98919842 6.5398932e-2
vn -0.99233738 -8.7478809e-2 8.7258091e-2
vn -0.32004745 -0.89163614 0.32024151
vn 0.31520008 -0.91516728 0.25123248
vn -0.24373172 -0.28571689 0.92680133
vn -0.57702152 -0.57702153 0.57800719
vn -0.89776534 -0.24754820 0.36433128
vn 1.2768921e-15 0.0000000e+0 -1.00000000
vn 1.2768921e-15 0.0000000e+0 -1.00000000
vn 1.2768921e-15 0.0000000e+0 -1.00000000
vn 1.2768921e-15 0.0000000e+0 -1.00000000
vn 1.2768921e-15 0.0000000e+0 -1.00000000
vn -0.99144480 -0.13052664 0.0000000e+0
vn -0.99144480 -0.13052664 0.0000000e+0
vn 1.1343781e-17 0.0000000e+0 -1.00000000
vn 1.1343781e-17 0.0000000e+0 -1.00000000
vn 1.1343781e-17 0.0000000e+0 -1.00000000
vn 1.1343781e-17 0.0000000e+0 -1.00000000
vn -0.13052665 -0.99144480 0.0000000e+0
vn -0.13052665 -0.99144480 0.0000000e+0
vn -6.3576967e-16 0.0000000e+0 -1.00000000
vn -6.3576967e-16 0.0000000e+0 -1.00000000
vn -6.3576967e-16 0.0000000e+0 -1.00000000
vn -6.3576967e-16 0.0000000e+0 -1.00000000
vn 8.6934091e-2 -0.99621407 0.0000000e+0
vn 8.6934091e-2 -0.99621407 0.0000000e+0
vn 8.6934091e-2 -0.99621407 0.0000000e+0
vn -1.2715393e-15 0.0000000e+0 -1.00000000
vn -1.2715393e-15 0.0000000e+0 -1.00000000
vn 0.99144480 -0.13052662 0.0000000e+0
vn 0.99144480 -0.13052662 0.0000000e+0
vn 3.4773240e-17 0.0000000e+0 -1.00000000
vn 3.4773240e-17 0.0000000e+0 -1.00000000
vn 3.4773240e-17 0.0000000e+0 -1.00000000
vn 3.4773240e-17 0.0000000e+0 -1.00000000
vn 3.4773240e-17 0.0000000e+0 -1.00000000
vn 0.99621407 8.6934082e-2 0.0000000e+0
vn 0.99621407 8.6934082e-2 0.0000000e+0
vn 0.99621407 8.6934082e-2 0.0000000e+0
vn 1.1343781e-17 0.0000000e+0 -1.00000000
vn 1.1343781e-17 0.0000000e+0 -1.00000000
vn 1.1343781e-17 0.0000000e+0 -1.00000000
vn 1.1343781e-17 0.0000000e+0 -1.00000000
vn 0.13052664 0.99144480 0.0000000e+0
vn 0.13052664 0.99144480 0.0000000e+0
vn 0.0000000e+0 0.0000000e+0 -1.00000000
vn 0.0000000e+0 0.0000000e+0 -1.00000000
vn 0.0000000e+0 0.0000000e+0 -1.00000000
vn -8.6934094e-2 0.99621406 0.0000000e+0
vn -8.6934094e-2 0.99621406 0.0000000e+0
vn -8.6934094e-2 0.99621406 0.0000000e+0
vn -1.1049145e-15 0.0000000e+0 -1.00000000
vn -1.1049145e-15 0.0000000e+0 -1.00000000
vn -1.1049145e-15 0.0000000e+0 -1.00000000
vn -0.99621406 8.6934094e-2 0.0000000e+0
vn -0.99621406 8.6934094e-2 0.0000000e+0
vn -0.99621406 8.6934094e-2 0.0000000e+0
vn -3.3147434e-15 0.0000000e+0 -1.00000000
vn -0.86611210 0.49984978 -1.7302901e-4
vn -0.86611210 0.49984978 -1.7302901e-4
vn -0.86611210 0.49984978 -1.7302901e-4
vn -0.86611210 0.49984978 -1.7302901e-4
vn -1.6573717e-15 0.0000000e+0 -1.00000000
vn -1.6573717e-15 0.0000000e+0 -1.00000000
vn -0.42076080 0.90717161 -1.5280761e-4
vn -0.42076080 0.90717161 -1.5280761e-4
vn -0.42076080 0.90717161 -1.5280761e-4
vn 0.0000000e+0 0.0000000e+0 -1.00000000
vn 0.0000000e+0 0.0000000e+0 -1.00000000
vn 0.42076081 0.90717160 -1.5280076e-4
vn 0.42076081 0.90717160 -1.5280076e-4
vn 0.42076081 0.90717160 -1.5280076e-4
vn 0.0000000e+0 0.0000000e+0 -1.00000000
vn 0.86611211 0.49984977 -1.7302495e-4
vn 0.86611211 0.49984977 -1.7302495e-4
vn 0.86611211 0.49984977 -1.7302495e-4
vn 0.86611211 0.49984977 -1.7302495e-4
vn -1.2132720e-15 0.0000000e+0 -1.00000000
vn -1.2132720e-15 0.0000000e+0 -1.00000000
vn 0.86611210 -0.49984977 -1.7302262e-4
vn 0.86611210 -0.49984977 -1.7302262e-4
vn 0.86611210 -0.49984977 -1.7302262e-4
vn 0.86611210 -0.49984977 -1.7302262e-4
vn 0.0000000e+0 0.0000000e+0 -1.00000000
vn 0.42076078 -0.90717162 -1.5280595e-4
vn 0.42076078 -0.90717162 -1.5280595e-4
vn 0.42076078 -0.90717162 -1.5280595e-4
vn 3.3147431e-15 0.0000000e+0 -1.00000000
vn 3.3147431e-15 0.0000000e+0 -1.00000000
vn -0.42076080 -0.90717161 -1.5280615e-4
vn -0.42076080 -0.90717161 -1.5280615e-4
vn -0.42076080 -0.90717161 -1.5280615e-4
vn 6.6294862e-15 0.0000000e+0 -1.00000000
vn -0.86611210 -0.49984978 -1.7303073e-4
vn -0.86611210 -0.49984978 -1.7303073e-4
vn -0.86611210 -0.49984978 -1.7303073e-4
vn -0.86611210 -0.49984978 -1.7303073e-4
vn 0.0000000e+0 0.0000000e+0 1.00000000
vn -0.44721360 -0.89442719 0.0000000e+0
vn -0.44721360 -0.89442719 0.0000000e+0
vn -0.44721360 -0.89442719 0.0000000e+0
vn 1.3407022e-17 0.0000000e+0 1.00000000
vn 1.3407022e-17 0.0000000e+0 1.00000000
vn 0.55618956 -0.83105546 0.0000000e+0
vn 0.55618956 -0.83105546 0.0000000e+0
vn 0.55618956 -0.83105546 0.0000000e+0
vn 1.3407022e-17 0.0000000e+0 1.00000000
vn 1.3407022e-17 0.0000000e+0 1.00000000
vn 0.93951107 -0.34251855 0.0000000e+0
vn 0.93951107 -0.34251855 0.0000000e+0
vn 0.0000000e+0 0.0000000e+0 1.00000000
vn 0.89442719 0.44721360 0.0000000e+0
vn 0.89442719 0.44721360 0.0000000e+0
vn 0.89442719 0.44721360 0.0000000e+0
vn 8.9380147e-18 0.0000000e+0 1.00000000
vn 8.9380147e-18 0.0000000e+0 1.00000000
vn 8.9380147e-18 0.0000000e+0 1.00000000
vn -0.70710678 0.70710678 0.0000000e+0
vn -0.70710678 0.70710678 0.0000000e+0
vn -0.70710678 0.70710678 0.0000000e+0
vn -0.70710678 0.70710678 0.0000000e+0
g object1_object1_auv
usemtl object1_auv
s 1
f 1/75/93 6/26/124 2/69/99
f 1/75/94 7/70/131 6/26/127
f 1/75/92 8/76/137 7/70/130
f 2/69/100 5/2/116 3/25/105
f 2/69/101 6/26/125 5/2/119
f 2/69/102 15/71/172 1/75/95
f 3/25/108 5/2/117 4/1/113
f 4/1/112 13/7/162 3/25/106
f 6/26/126 11/18/153 5/2/120
f 8/76/138 10/72/148 7/70/132
f 9/74/142 10/72/147 8/76/136
f 11/18/152 12/8/157 5/2/118
f 13/7/163 14/17/168 3/25/107
f 15/71/173 16/73/177 1/75/96
f 18/213/186 21/191/199 17/214/182
f 19/203/191 21/191/200 18/213/187
f 20/190/195 21/191/201 19/203/192
s 2
f 1/103/98 107/131/86 8/102/141
f 2/164/104 105/165/84 15/176/176
f 3/45/110 105/165/84 2/164/103
f 3/45/111 106/46/85 105/165/84
f 4/183/115 89/184/68 13/181/167
f 5/197/122 89/184/68 4/183/114
f 5/197/123 90/198/69 89/184/68
f 6/134/128 92/133/71 11/143/156
f 7/24/134 92/133/71 6/134/129
f 8/102/139 104/132/83 9/105/146
f 8/102/140 107/131/86 104/132/83
f 9/93/145 94/120/73 10/94/151
f 9/210/144 103/209/82 94/212/73
f 9/105/143 104/132/83 103/141/82
f 10/14/150 91/23/70 7/24/133
f 10/14/149 94/13/73 91/23/70
f 11/143/155 93/142/72 12/152/161
f 12/199/159 90/198/69 5/197/121
f 12/199/160 100/200/79 90/198/69
f 13/30/166 109/36/88 14/37/171
f 14/37/170 106/46/85 3/45/109
f 14/37/169 109/36/88 106/46/85
f 15/176/175 108/177/87 16/179/181
f 16/104/179 107/131/86 1/103/97
f 16/104/180 112/140/91 107/131/86
f 17/99/184 23/206/2 18/204/188
f 18/169/190 24/146/3 19/155/193
f 19/155/194 24/146/3 20/168/196
f 20/11/198 25/10/4 21/79/202
f 21/189/205 22/193/1 17/194/185
f 21/189/204 26/188/5 22/193/1
f 22/101/1 23/206/2 17/99/183
f 22/101/1 55/205/34 23/206/2
f 22/193/1 60/195/39 59/196/38
f 22/101/1 63/100/42 55/205/34
f 22/193/1 64/192/43 60/195/39
f 23/167/2 24/146/3 18/169/189
f 23/206/2 55/205/34 53/207/32
f 23/167/2 69/137/48 24/146/3
f 24/146/3 25/166/4 20/168/197
f 24/146/3 69/137/48 67/136/46
f 24/146/3 70/135/49 25/166/4
f 25/10/4 26/78/5 21/79/203
f 25/166/4 77/144/56 73/147/52
f 25/10/4 78/9/57 26/78/5
f 26/188/5 64/192/43 22/193/1
f 26/78/5 85/77/64 81/80/60
f 26/188/5 86/187/65 64/192/43
f 27/67/6 65/110/44 28/109/7
f 28/109/7 36/68/15 27/67/6
f 28/109/7 45/125/24 35/139/14
f 28/109/7 61/119/40 45/125/24
f 28/109/7 65/110/44 61/119/40
f 29/130/8 66/126/45 30/129/9
f 30/129/9 35/139/14 29/130/8
f 30/129/9 47/127/26 34/138/13
f 30/129/9 84/121/63 47/127/26
f 30/129/9 88/124/67 84/121/63
f 31/106/10 87/107/66 32/66/11
f 32/66/11 33/65/12 31/106/10
f 32/66/11 37/54/16 33/65/12
f 32/66/11 80/55/59 37/54/16
f 32/66/11 87/107/66 80/55/59
f 33/65/12 34/138/13 31/106/10
f 33/65/12 101/148/80 34/138/13
f 33/65/12 110/21/89 101/148/80
f 34/138/13 35/139/14 30/129/9
f 34/138/13 48/123/27 31/106/10
f 34/138/13 95/149/74 35/139/14
f 34/138/13 101/148/80 95/149/74
f 35/139/14 36/68/15 28/109/7
f 35/139/14 46/128/25 29/130/8
f 35/139/14 95/149/74 36/68/15
f 36/68/15 42/62/21 27/67/6
f 36/68/15 43/28/22 42/62/21
f 36/68/15 98/22/77 43/28/22
f 37/54/16 44/27/23 33/65/12
f 37/54/16 49/39/28 44/27/23
f 37/54/16 76/47/55 49/39/28
f 37/54/16 80/55/59 76/47/55
f 38/32/17 79/40/58 39/33/18
f 39/33/18 44/27/23 38/32/17
f 39/33/18 51/34/30 43/28/22
f 39/33/18 68/42/47 51/34/30
f 39/33/18 72/41/51 68/42/47
f 39/33/18 79/40/58 72/41/51
f 40/38/19 71/44/50 41/56/20
f 41/56/20 43/28/22 40/38/19
f 41/56/20 52/57/31 43/28/22
f 41/56/20 54/59/33 52/57/31
f 41/56/20 58/58/37 54/59/33
f 41/56/20 71/44/50 58/58/37
f 42/62/21 57/63/36 27/67/6
f 43/28/22 44/27/23 39/33/18
f 43/28/22 51/34/30 40/38/19
f 43/28/22 52/57/31 42/62/21
f 43/28/22 98/22/77 44/27/23
f 44/27/23 50/35/29 38/32/17
f 44/27/23 110/21/89 33/65/12
f 45/125/24 46/128/25 35/139/14
f 45/125/24 62/122/41 46/128/25
f 46/128/25 62/122/41 29/130/8
f 47/127/26 48/123/27 34/138/13
f 47/127/26 84/121/63 48/123/27
f 48/123/27 83/118/62 31/106/10
f 48/123/27 84/121/63 83/118/62
f 49/39/28 50/35/29 44/27/23
f 49/39/28 76/47/55 50/35/29
f 50/35/29 75/43/54 38/32/17
f 50/35/29 76/47/55 75/43/54
f 51/34/30 68/42/47 40/38/19
f 52/57/31 54/59/33 42/62/21
f 53/207/32 56/208/35 23/206/2
f 53/86/32 57/85/36 54/92/33
f 53/61/32 58/58/37 56/60/35
f 54/59/33 57/63/36 42/62/21
f 54/59/33 58/58/37 53/61/32
f 55/64/34 57/63/36 53/61/32
f 55/64/34 63/111/42 57/63/36
f 56/145/35 69/137/48 23/167/2
f 56/60/35 71/44/50 69/52/48
f 57/63/36 65/110/44 27/67/6
f 58/58/37 71/44/50 56/60/35
f 59/113/38 62/122/41 61/119/40
f 59/98/38 63/100/42 22/101/1
f 59/113/38 65/110/44 63/111/42
f 60/115/39 62/122/41 59/113/38
f 60/159/39 66/171/45 62/173/41
f 61/119/40 62/122/41 45/125/24
f 61/81/40 65/97/44 59/91/38
f 62/122/41 66/126/45 29/130/8
f 63/111/42 65/110/44 57/63/36
f 64/117/43 66/126/45 60/115/39
f 64/117/43 88/124/67 66/126/45
f 66/126/45 88/124/67 30/129/9
f 67/136/46 70/135/49 24/146/3
f 67/50/46 71/44/50 68/42/47
f 67/50/46 72/41/51 70/49/49
f 68/42/47 71/44/50 40/38/19
f 68/157/47 72/161/51 67/175/46
f 69/52/48 71/44/50 67/50/46
f 70/135/49 77/144/56 25/166/4
f 72/41/51 77/48/56 70/49/49
f 72/41/51 79/40/58 77/48/56
f 73/3/52 74/4/53 25/10/4
f 73/51/52 75/43/54 74/53/53
f 73/174/52 79/160/58 75/156/54
f 74/4/53 78/9/57 25/10/4
f 74/82/53 80/87/59 78/88/57
f 75/43/54 76/47/55 74/53/53
f 75/43/54 79/40/58 38/32/17
f 76/83/55 80/95/59 74/90/53
f 77/48/56 79/40/58 73/51/52
f 78/9/57 85/77/64 26/78/5
f 80/12/59 85/77/64 78/9/57
f 80/55/59 87/107/66 85/108/64
f 81/185/60 82/186/61 26/188/5
f 81/112/60 83/118/62 82/114/61
f 81/89/60 87/84/66 83/96/62
f 82/186/61 86/187/65 26/188/5
f 82/114/61 88/124/67 86/116/65
f 83/118/62 84/121/63 82/114/61
f 83/118/62 87/107/66 31/106/10
f 84/172/63 88/170/67 82/158/61
f 85/108/64 87/107/66 81/112/60
f 86/116/65 88/124/67 64/117/43
f 89/184/68 99/182/78 13/181/164
f 90/198/69 99/182/78 89/184/68
f 90/198/69 100/200/79 99/182/78
f 91/23/70 92/133/71 7/24/135
f 91/23/70 94/13/73 92/133/71
f 92/133/71 93/142/72 11/143/154
f 92/133/71 94/13/73 93/142/72
f 93/151/72 98/22/77 95/149/74
f 93/202/72 100/200/79 12/199/158
f 94/20/73 98/22/77 93/151/72
f 94/212/73 103/209/82 97/211/76
f 95/149/74 96/154/75 93/151/72
f 95/149/74 98/22/77 36/68/15
f 95/149/74 100/163/79 96/154/75
f 95/149/74 101/148/80 100/163/79
f 96/201/75 100/200/79 93/202/72
f 97/16/76 98/22/77 94/20/73
f 97/16/76 103/6/82 98/22/77
f 98/22/77 110/21/89 44/27/23
f 98/22/77 112/5/91 110/21/89
f 99/29/78 109/36/88 13/30/165
f 100/163/79 101/148/80 99/162/78
f 101/148/80 102/153/81 99/162/78
f 101/148/80 109/150/88 102/153/81
f 101/148/80 110/21/89 108/19/87
f 102/31/81 109/36/88 99/29/78
f 103/6/82 112/5/91 98/22/77
f 104/132/83 107/131/86 103/141/82
f 105/165/84 108/177/87 15/176/174
f 105/165/84 109/36/88 108/177/87
f 106/46/85 109/36/88 105/165/84
f 107/131/86 112/140/91 103/141/82
f 108/19/87 109/150/88 101/148/80
f 108/177/87 112/180/91 16/179/178
f 110/21/89 111/15/90 108/19/87
f 110/21/89 112/5/91 111/15/90
f 111/178/90 112/180/91 108/177/87
